<svg width="380" height="120" viewBox="0 0 380 120" fill="none" xmlns="http://www.w3.org/2000/svg">
<path d="M36.624 5.57335H38.192L42.672 16.9333H40.784L39.584 13.8453H35.2L34.016 16.9333H32.112L36.624 5.57335ZM39.232 12.5173L37.408 7.63735L35.52 12.5173H39.232ZM48.3649 17.0933C47.7249 17.0933 47.1435 16.944 46.6209 16.6453C46.1089 16.336 45.7035 15.9253 45.4049 15.4133V16.9333H43.8529V5.25335H45.6129V10.1493C45.9435 9.61602 46.3542 9.19468 46.8449 8.88535C47.3462 8.57602 47.9329 8.42135 48.6049 8.42135C49.1595 8.42135 49.6662 8.54402 50.1249 8.78935C50.5835 9.02402 50.9729 9.34402 51.2929 9.74935C51.6235 10.144 51.8742 10.608 52.0449 11.1413C52.2262 11.664 52.3169 12.2133 52.3169 12.7893C52.3169 13.3867 52.2155 13.9467 52.0129 14.4693C51.8102 14.992 51.5329 15.4507 51.1809 15.8453C50.8289 16.2293 50.4075 16.5333 49.9169 16.7573C49.4369 16.9813 48.9195 17.0933 48.3649 17.0933ZM47.9009 15.5893C48.2849 15.5893 48.6369 15.5147 48.9569 15.3653C49.2769 15.2053 49.5489 14.9973 49.7729 14.7413C50.0075 14.4853 50.1889 14.192 50.3169 13.8613C50.4449 13.52 50.5089 13.1627 50.5089 12.7893C50.5089 12.416 50.4449 12.0587 50.3169 11.7173C50.1995 11.3653 50.0289 11.0613 49.8049 10.8053C49.5915 10.5387 49.3302 10.3253 49.0209 10.1653C48.7222 10.0053 48.3915 9.92535 48.0289 9.92535C47.4849 9.92535 46.9995 10.1013 46.5729 10.4533C46.1569 10.8053 45.8369 11.232 45.6129 11.7333V13.9413C45.6769 14.1867 45.7889 14.4107 45.9489 14.6133C46.1089 14.8053 46.2955 14.976 46.5089 15.1253C46.7222 15.2747 46.9515 15.392 47.1969 15.4773C47.4422 15.552 47.6769 15.5893 47.9009 15.5893ZM57.6598 17.0933C56.9984 17.0933 56.4011 16.976 55.8678 16.7413C55.3451 16.5067 54.8971 16.192 54.5238 15.7973C54.1504 15.4027 53.8624 14.944 53.6598 14.4213C53.4571 13.888 53.3558 13.3333 53.3558 12.7573C53.3558 12.1813 53.4571 11.632 53.6598 11.1093C53.8624 10.576 54.1504 10.112 54.5238 9.71735C54.9078 9.32268 55.3611 9.00802 55.8838 8.77335C56.4171 8.53868 57.0091 8.42135 57.6598 8.42135C58.3104 8.42135 58.8971 8.53868 59.4198 8.77335C59.9531 9.00802 60.4064 9.32268 60.7798 9.71735C61.1638 10.112 61.4571 10.576 61.6597 11.1093C61.8624 11.632 61.9638 12.1813 61.9638 12.7573C61.9638 13.3333 61.8624 13.888 61.6597 14.4213C61.4571 14.944 61.1638 15.4027 60.7798 15.7973C60.4064 16.192 59.9531 16.5067 59.4198 16.7413C58.8971 16.976 58.3104 17.0933 57.6598 17.0933ZM55.1638 12.7733C55.1638 13.1787 55.2278 13.552 55.3558 13.8933C55.4838 14.2347 55.6598 14.5333 55.8838 14.7893C56.1078 15.0347 56.3691 15.232 56.6678 15.3813C56.9771 15.52 57.3078 15.5893 57.6598 15.5893C58.0118 15.5893 58.3371 15.52 58.6358 15.3813C58.9451 15.232 59.2118 15.0293 59.4358 14.7733C59.6598 14.5173 59.8358 14.2187 59.9638 13.8773C60.0918 13.536 60.1558 13.1627 60.1558 12.7573C60.1558 12.3627 60.0918 11.9947 59.9638 11.6533C59.8358 11.3013 59.6598 10.9973 59.4358 10.7413C59.2118 10.4853 58.9451 10.288 58.6358 10.1493C58.3371 10 58.0118 9.92535 57.6598 9.92535C57.3184 9.92535 56.9931 10 56.6838 10.1493C56.3851 10.2987 56.1238 10.5013 55.8998 10.7573C55.6758 11.0133 55.4944 11.3173 55.3558 11.6693C55.2278 12.0107 55.1638 12.3787 55.1638 12.7733ZM66.1008 17.0933C65.2261 17.0933 64.5648 16.8107 64.1168 16.2453C63.6688 15.6693 63.4448 14.816 63.4448 13.6853V8.56535H65.2048V13.3333C65.2048 14.8373 65.7381 15.5893 66.8048 15.5893C67.3061 15.5893 67.7808 15.4347 68.2288 15.1253C68.6768 14.816 69.0234 14.368 69.2688 13.7813V8.56535H71.0288V14.8533C71.0288 15.056 71.0608 15.2 71.1248 15.2853C71.1994 15.3707 71.3274 15.4187 71.5087 15.4293V16.9333C71.3274 16.9653 71.1781 16.9867 71.0608 16.9973C70.9434 17.008 70.8314 17.0133 70.7248 17.0133C70.4048 17.0133 70.1328 16.928 69.9088 16.7573C69.6848 16.576 69.5674 16.3467 69.5568 16.0693L69.5248 15.2373C69.1514 15.8453 68.6661 16.3093 68.0688 16.6293C67.4714 16.9387 66.8154 17.0933 66.1008 17.0933ZM77.9308 16.5013C77.7068 16.608 77.3974 16.7307 77.0028 16.8693C76.6081 16.9973 76.1868 17.0613 75.7388 17.0613C75.4614 17.0613 75.2001 17.024 74.9548 16.9493C74.7094 16.8747 74.4908 16.7627 74.2988 16.6133C74.1174 16.464 73.9734 16.272 73.8668 16.0373C73.7601 15.792 73.7068 15.4987 73.7068 15.1573V9.92535H72.6028V8.56535H73.7068V5.81335H75.4668V8.56535H77.2908V9.92535H75.4668V14.5973C75.4881 14.896 75.5788 15.1147 75.7388 15.2533C75.9094 15.3813 76.1174 15.4453 76.3628 15.4453C76.6081 15.4453 76.8428 15.4027 77.0668 15.3173C77.2908 15.232 77.4561 15.1627 77.5628 15.1093L77.9308 16.5013ZM95.9029 16.9333H94.1429V12.2453C94.1429 11.4667 94.0149 10.896 93.7589 10.5333C93.5029 10.1707 93.1295 9.98935 92.6389 9.98935C92.1375 9.98935 91.6789 10.176 91.2629 10.5493C90.8575 10.912 90.5642 11.3867 90.3829 11.9733V16.9333H88.6229V12.2453C88.6229 11.456 88.4949 10.8853 88.2389 10.5333C87.9829 10.1707 87.6149 9.98935 87.1349 9.98935C86.6335 9.98935 86.1749 10.1707 85.7589 10.5333C85.3429 10.896 85.0442 11.3707 84.8629 11.9573V16.9333H83.1029V8.56535H84.7029V10.2453C85.0335 9.65868 85.4655 9.21068 85.9989 8.90135C86.5429 8.58135 87.1615 8.42135 87.8549 8.42135C88.5482 8.42135 89.0922 8.60268 89.4869 8.96535C89.8922 9.32802 90.1429 9.78135 90.2389 10.3253C90.5909 9.70668 91.0335 9.23735 91.5669 8.91735C92.1002 8.58668 92.7082 8.42135 93.3909 8.42135C93.8815 8.42135 94.2869 8.51735 94.6069 8.70935C94.9375 8.89068 95.1989 9.13602 95.3909 9.44535C95.5829 9.75468 95.7162 10.1173 95.7909 10.5333C95.8655 10.9387 95.9029 11.3707 95.9029 11.8293V16.9333ZM101.723 17.0933C101.072 17.0933 100.48 16.9813 99.947 16.7573C99.4137 16.5227 98.955 16.208 98.571 15.8133C98.1977 15.4187 97.9043 14.96 97.691 14.4373C97.4883 13.9147 97.387 13.36 97.387 12.7733C97.387 12.1867 97.4883 11.632 97.691 11.1093C97.9043 10.576 98.1977 10.112 98.571 9.71735C98.955 9.31202 99.4137 8.99735 99.947 8.77335C100.48 8.53868 101.078 8.42135 101.739 8.42135C102.39 8.42135 102.976 8.53868 103.499 8.77335C104.032 9.00802 104.486 9.32268 104.859 9.71735C105.232 10.1013 105.515 10.5547 105.707 11.0773C105.91 11.5893 106.011 12.128 106.011 12.6933C106.011 12.8213 106.006 12.944 105.995 13.0613C105.984 13.168 105.974 13.2587 105.963 13.3333H99.259C99.291 13.7067 99.3763 14.0427 99.515 14.3413C99.6643 14.64 99.851 14.9013 100.075 15.1253C100.31 15.3387 100.571 15.504 100.859 15.6213C101.158 15.7387 101.467 15.7973 101.787 15.7973C102.022 15.7973 102.251 15.7707 102.475 15.7173C102.71 15.6533 102.923 15.568 103.115 15.4613C103.307 15.344 103.478 15.2053 103.627 15.0453C103.776 14.8853 103.894 14.7093 103.979 14.5173L105.483 14.9493C105.195 15.5787 104.715 16.096 104.043 16.5013C103.382 16.896 102.608 17.0933 101.723 17.0933ZM104.267 12.1173C104.235 11.7653 104.144 11.44 103.995 11.1413C103.856 10.8427 103.675 10.592 103.451 10.3893C103.227 10.176 102.966 10.0107 102.667 9.89335C102.368 9.77602 102.054 9.71735 101.723 9.71735C101.392 9.71735 101.078 9.77602 100.779 9.89335C100.491 10.0107 100.235 10.176 100.011 10.3893C99.787 10.592 99.6057 10.8427 99.467 11.1413C99.3283 11.44 99.243 11.7653 99.211 12.1173H104.267Z" fill="#B5C1DB"/>
<path d="M0 0H380V101.8L302.5 120L0 101.8V0Z" fill="#1389AA"/>
<path d="M0 0H187H380V47.6667L302.5 65.8667L0 47.6667V0Z" fill="#3E282F"/>
<path d="M33.162 11.4C37.2153 11.4 40.496 12.6287 43.004 15.086C45.5373 17.518 46.804 20.7227 46.804 24.7C46.804 28.6773 45.5373 31.8947 43.004 34.352C40.496 36.784 37.2153 38 33.162 38H20.28V37.62H20.774C21.4327 37.62 21.99 37.392 22.446 36.936C22.9273 36.4547 23.1807 35.8847 23.206 35.226V13.946C23.206 13.338 22.9527 12.8313 22.446 12.426C21.9647 11.9953 21.4073 11.78 20.774 11.78H20.318L20.28 11.4H33.162ZM25.676 12.54V36.86H33.162C35.29 36.86 37.1647 36.3533 38.786 35.34C40.4327 34.3267 41.6993 32.908 42.586 31.084C43.498 29.2347 43.954 27.1067 43.954 24.7C43.954 21.052 42.9533 18.1133 40.952 15.884C38.976 13.6547 36.3793 12.54 33.162 12.54H25.676ZM50.5322 37.62C51.2162 37.62 51.8115 37.4173 52.3182 37.012C52.8248 36.6067 53.0782 36.1253 53.0782 35.568V17.632C53.0782 17.0747 52.8248 16.5933 52.3182 16.188C51.8115 15.7827 51.2035 15.58 50.4942 15.58H50.0002V15.2H58.5882V15.58H58.0942C57.4102 15.58 56.8148 15.77 56.3082 16.15C55.8268 16.53 55.5608 16.9987 55.5102 17.556V35.606C55.5355 36.1633 55.8015 36.6447 56.3082 37.05C56.8148 37.43 57.4102 37.62 58.0942 37.62H58.5882L58.6262 38H50.0002V37.62H50.5322ZM63.2978 37.62C63.9058 37.62 64.4124 37.43 64.8178 37.05C65.2484 36.6447 65.4764 36.1633 65.5018 35.606V17.556C65.5018 16.9987 65.2864 16.53 64.8558 16.15C64.4251 15.77 63.9058 15.58 63.2978 15.58H62.7658V15.2H73.8618C74.9004 15.2 75.8124 15.124 76.5978 14.972C77.3831 14.82 77.8898 14.6933 78.1178 14.592V18.924L77.6998 18.886V18.316C77.6998 17.784 77.5224 17.328 77.1678 16.948C76.8131 16.568 76.3571 16.378 75.7998 16.378H67.8958V26.03H74.3938C74.9004 26.03 75.2804 25.878 75.5338 25.574C75.8124 25.27 75.9518 24.89 75.9518 24.434V23.94H76.3698V29.26H75.9518V28.766C75.9518 28.0567 75.6858 27.5753 75.1538 27.322C74.9511 27.246 74.7358 27.1953 74.5078 27.17H67.8958V36.822H73.8618C75.0271 36.822 76.0024 36.6193 76.7878 36.214C77.5984 35.8087 78.2064 35.3273 78.6118 34.77C79.0424 34.2127 79.4731 33.478 79.9038 32.566H80.2838L78.1938 38H62.7658V37.62H63.2978ZM95.7839 38.532C92.0093 38.5067 88.9819 37.43 86.7019 35.302C84.4473 33.1487 83.3199 30.248 83.3199 26.6C83.3199 22.9267 84.4473 20.026 86.7019 17.898C88.9819 15.7447 91.9079 14.668 95.4799 14.668C99.0773 14.668 102.13 15.428 104.638 16.948L105.474 22.344H105.132C104.6 20.1147 103.561 18.468 102.016 17.404C100.496 16.34 98.3299 15.808 95.5179 15.808C92.7313 15.808 90.4513 16.7833 88.6779 18.734C86.9299 20.6593 86.0559 23.2813 86.0559 26.6C86.0559 29.9187 86.9426 32.5533 88.7159 34.504C90.4893 36.4293 92.9339 37.392 96.0499 37.392C99.1913 37.392 101.889 36.29 104.144 34.086L104.182 29.032C104.207 28.576 104.055 28.2213 103.726 27.968C103.422 27.6893 102.991 27.55 102.434 27.55H101.902V27.17H108.856V27.55H108.324C107.184 27.55 106.614 28.0567 106.614 29.07V33.63C105.55 34.9473 104.081 36.1 102.206 37.088C100.357 38.0507 98.2159 38.532 95.7839 38.532ZM117.907 16.188C119.858 15.1747 121.998 14.668 124.329 14.668C126.685 14.668 128.838 15.1747 130.789 16.188C132.74 17.176 134.285 18.582 135.425 20.406C136.59 22.23 137.173 24.2947 137.173 26.6C137.173 28.9053 136.59 30.97 135.425 32.794C134.285 34.618 132.74 36.0367 130.789 37.05C128.838 38.038 126.837 38.532 124.785 38.532C122.733 38.532 120.922 38.2407 119.351 37.658C117.78 37.0753 116.412 36.2647 115.247 35.226C114.107 34.1873 113.195 32.9207 112.511 31.426C111.852 29.9313 111.523 28.1833 111.523 26.182C111.523 24.1553 112.093 22.23 113.233 20.406C114.398 18.582 115.956 17.176 117.907 16.188ZM117.185 34.39C119.11 36.3913 121.492 37.392 124.329 37.392C127.166 37.392 129.548 36.3913 131.473 34.39C133.398 32.3633 134.361 29.7667 134.361 26.6C134.361 23.4333 133.398 20.8493 131.473 18.848C129.548 16.8213 127.166 15.808 124.329 15.808C121.492 15.808 119.11 16.8213 117.185 18.848C115.285 20.8493 114.335 23.4333 114.335 26.6C114.335 29.7667 115.285 32.3633 117.185 34.39Z" fill="#B5C1DB"/>
<path d="M69.084 71.072H67.45C67.3993 71.072 67.3613 71.072 67.336 71.072V93.226C67.3613 93.8847 67.602 94.4547 68.058 94.936C68.5393 95.392 69.1093 95.62 69.768 95.62H70.262V96H58.71V95.62H59.204C60.116 95.62 60.8127 95.2273 61.294 94.442C61.4967 94.0873 61.6107 93.6947 61.636 93.264V72.174C61.6107 71.5153 61.3573 70.958 60.876 70.502C60.42 70.0207 59.8627 69.78 59.204 69.78H58.71V69.4H71.744C74.2013 69.4 76.2787 69.932 77.976 70.996C78.8373 71.528 79.5213 72.2753 80.028 73.238C80.5347 74.1753 80.788 75.4167 80.788 76.962C80.788 78.482 80.256 79.9513 79.192 81.37C78.128 82.7887 76.5827 83.5993 74.556 83.802C76.0253 84.2833 77.3173 85.398 78.432 87.146C81.168 91.5287 83.1947 94.138 84.512 94.974C85.1707 95.3793 85.994 95.5947 86.982 95.62V96H83.258C81.054 96 79.2173 95.7087 77.748 95.126C76.304 94.5433 75.164 93.5173 74.328 92.048C73.8467 91.212 72.7953 89.046 71.174 85.55C70.4647 84.0047 69.6033 83.156 68.59 83.004V82.624H69.768C70.908 82.624 71.9087 82.282 72.77 81.598C73.6567 80.914 74.252 79.7993 74.556 78.254C74.6573 77.722 74.708 77.304 74.708 77C74.708 74.9227 74.29 73.428 73.454 72.516C72.618 71.5787 71.5413 71.0973 70.224 71.072C69.9707 71.072 69.5907 71.072 69.084 71.072ZM85.6425 84.6C85.6425 80.952 86.8585 78.064 89.2905 75.936C91.7478 73.7827 95.0032 72.706 99.0565 72.706C103.135 72.706 106.403 73.7827 108.861 75.936C111.318 78.064 112.547 80.952 112.547 84.6C112.547 88.248 111.318 91.1487 108.861 93.302C106.403 95.43 103.148 96.494 99.0945 96.494C95.0412 96.494 91.7858 95.43 89.3285 93.302C86.8712 91.1487 85.6425 88.248 85.6425 84.6ZM91.4565 84.6C91.4565 87.792 92.1405 90.3253 93.5085 92.2C94.9018 94.0493 96.7512 94.974 99.0565 94.974C101.387 94.974 103.237 94.0493 104.605 92.2C105.998 90.3253 106.695 87.792 106.695 84.6C106.695 81.408 105.998 78.8873 104.605 77.038C103.237 75.1633 101.387 74.226 99.0565 74.226C96.7512 74.226 94.9018 75.1633 93.5085 77.038C92.1405 78.8873 91.4565 81.408 91.4565 84.6ZM137.08 76.24C139.386 78.2413 140.538 81.028 140.538 84.6C140.538 88.172 139.386 90.9713 137.08 92.998C134.775 94.9993 131.583 96 127.504 96H114.66V95.62H115.154C115.737 95.62 116.231 95.4173 116.636 95.012C117.042 94.6067 117.257 94.1253 117.282 93.568V75.556C117.232 74.9987 117.004 74.53 116.598 74.15C116.193 73.77 115.699 73.58 115.116 73.58H114.66V73.2H127.504C131.583 73.2 134.775 74.2133 137.08 76.24ZM127.048 94.48C129.43 94.48 131.304 93.606 132.672 91.858C134.066 90.11 134.762 87.6907 134.762 84.6C134.762 81.5093 134.066 79.09 132.672 77.342C131.304 75.5687 129.43 74.682 127.048 74.682H122.754V94.48H127.048ZM152.141 74.758H150.925V93.606C150.925 94.214 151.127 94.708 151.533 95.088C151.963 95.4427 152.445 95.62 152.977 95.62H153.395V96H142.945V95.62H143.401C143.958 95.62 144.427 95.43 144.807 95.05C145.212 94.67 145.415 94.2013 145.415 93.644V75.556C145.415 74.9987 145.212 74.53 144.807 74.15C144.427 73.77 143.971 73.58 143.439 73.58H142.945V73.2H154.611C156.891 73.2 158.803 73.6433 160.349 74.53C162.071 75.518 162.933 77.152 162.933 79.432C162.933 80.9013 162.489 82.2313 161.603 83.422C160.716 84.5873 159.399 85.2967 157.651 85.55C158.335 85.778 159.006 86.2087 159.665 86.842C160.349 87.4753 160.893 88.1213 161.299 88.78C162.109 90.224 162.958 91.554 163.845 92.77C164.731 93.9607 165.441 94.7333 165.973 95.088C166.53 95.4427 167.201 95.62 167.987 95.62V96H164.795C162.692 96 161.071 95.7467 159.931 95.24C158.816 94.7333 157.815 93.7707 156.929 92.352C155.561 90.1733 154.712 88.4507 154.383 87.184C154.079 86.424 153.711 85.854 153.281 85.474C152.875 85.094 152.483 84.8787 152.103 84.828V84.524H153.053C155.206 84.4987 156.523 83.232 157.005 80.724C157.106 80.344 157.157 80.0147 157.157 79.736C157.157 79.4573 157.144 79.0773 157.119 78.596C157.093 78.0893 156.929 77.532 156.625 76.924C156.346 76.2907 155.979 75.8347 155.523 75.556C154.737 75.0747 153.927 74.8213 153.091 74.796C152.812 74.7707 152.495 74.758 152.141 74.758ZM167.653 95.62H168.109C168.717 95.62 169.237 95.43 169.667 95.05C170.098 94.6447 170.313 94.1633 170.313 93.606V75.594C170.313 75.0367 170.098 74.568 169.667 74.188C169.237 73.7827 168.717 73.58 168.109 73.58H167.653V73.2H178.445V73.58H177.989C177.407 73.58 176.9 73.77 176.469 74.15C176.039 74.53 175.811 74.9987 175.785 75.556V93.606C175.811 94.1887 176.039 94.67 176.469 95.05C176.9 95.43 177.407 95.62 177.989 95.62H178.445V96H167.653V95.62ZM184.061 93.302C181.806 91.174 180.679 88.2607 180.679 84.562C180.679 80.8633 181.806 77.9627 184.061 75.86C186.341 73.7573 189.469 72.706 193.447 72.706C195.22 72.706 196.968 72.8707 198.691 73.2C200.413 73.504 201.807 73.922 202.871 74.454V80.496H202.567C201.452 76.316 198.792 74.226 194.587 74.226C191.952 74.226 189.938 75.1507 188.545 77C187.177 78.824 186.493 81.3827 186.493 84.676C186.493 87.944 187.113 90.4773 188.355 92.276C189.621 94.0747 191.407 94.974 193.713 94.974C194.979 94.974 196.119 94.6827 197.133 94.1C198.146 93.492 198.817 92.6307 199.147 91.516L199.185 86.956C199.185 86.4747 199.033 86.1073 198.729 85.854C198.45 85.5753 198.045 85.436 197.513 85.436H196.981V85.132H206.747V85.436H206.291C205.176 85.436 204.619 85.9427 204.619 86.956V92.048C203.732 93.188 202.237 94.214 200.135 95.126C198.032 96.038 195.727 96.494 193.219 96.494C189.393 96.4687 186.341 95.4047 184.061 93.302ZM233.175 73.58H232.643C232.161 73.58 231.756 73.732 231.427 74.036C231.097 74.3147 230.92 74.682 230.895 75.138V87.716C230.895 90.452 230.059 92.6053 228.387 94.176C226.715 95.7213 224.219 96.494 220.901 96.494C217.607 96.494 215.036 95.734 213.187 94.214C211.363 92.694 210.451 90.5533 210.451 87.792V75.176C210.451 74.72 210.273 74.34 209.919 74.036C209.589 73.732 209.184 73.58 208.703 73.58H208.171V73.2H218.165V73.58H217.633C217.151 73.58 216.746 73.732 216.417 74.036C216.087 74.34 215.923 74.72 215.923 75.176V87.526C215.923 89.8567 216.455 91.6807 217.519 92.998C218.608 94.3153 220.128 94.974 222.079 94.974C224.029 94.974 225.562 94.3533 226.677 93.112C227.817 91.8707 228.387 90.148 228.387 87.944V75.176C228.361 74.6947 228.184 74.3147 227.855 74.036C227.525 73.732 227.12 73.58 226.639 73.58H226.145V73.2H233.175V73.58ZM253.09 96H235.192V95.62H235.648C236.231 95.62 236.712 95.43 237.092 95.05C237.498 94.67 237.713 94.2013 237.738 93.644V75.556C237.713 74.9987 237.498 74.53 237.092 74.15C236.712 73.77 236.231 73.58 235.648 73.58H235.192V73.2H248.568C249.252 73.2 250 73.1367 250.81 73.01C251.621 72.8833 252.191 72.7567 252.52 72.63V78.672H252.14V78.33C252.14 77.2153 251.836 76.3413 251.228 75.708C250.62 75.0747 249.772 74.7453 248.682 74.72H243.21V83.954H247.542C248.404 83.9287 249.1 83.6373 249.632 83.08C250.164 82.5227 250.43 81.8133 250.43 80.952V80.686H250.81V88.742H250.43V88.476C250.43 87.2853 249.987 86.424 249.1 85.892C248.644 85.6133 248.138 85.474 247.58 85.474H243.21V94.48H247.77C249.341 94.4547 250.671 93.9733 251.76 93.036C252.875 92.0733 253.686 90.7307 254.192 89.008H254.534L253.09 96ZM256.643 96V95.696L269.145 74.682H261.013C259.923 74.7073 259.075 75.0367 258.467 75.67C257.859 76.3033 257.555 77.1773 257.555 78.292V78.596H257.175V72.592C257.479 72.7187 258.061 72.8453 258.923 72.972C259.809 73.0987 260.607 73.162 261.317 73.162H272.489C273.223 73.162 273.996 73.1113 274.807 73.01C275.643 72.9087 276.175 72.8073 276.403 72.706V73.01L264.053 94.518H270.627C273.996 94.4673 276.263 92.6307 277.429 89.008H277.847L276.175 96H256.643Z" fill="#D8DFED"/>
</svg>
